<?xml version="1.0" encoding="UTF-8" standalone="no"?>
<!-- Created with Inkscape (http://www.inkscape.org/) -->

<svg
   xmlns:dc="http://purl.org/dc/elements/1.1/"
   xmlns:cc="http://creativecommons.org/ns#"
   xmlns:rdf="http://www.w3.org/1999/02/22-rdf-syntax-ns#"
   xmlns:svg="http://www.w3.org/2000/svg"
   xmlns="http://www.w3.org/2000/svg"
   xmlns:sodipodi="http://sodipodi.sourceforge.net/DTD/sodipodi-0.dtd"
   xmlns:inkscape="http://www.inkscape.org/namespaces/inkscape"
   inkscape:version="0.48.5 r10040"
   version="1.1"
   id="svg2"
   height="182.44997"
   width="408.95087"
   sodipodi:docname="doppler.svg">
  <sodipodi:namedview
     id="base"
     pagecolor="#ffffff"
     bordercolor="#666666"
     borderopacity="1.0"
     inkscape:pageopacity="0.0"
     inkscape:pageshadow="2"
     inkscape:zoom="1.979899"
     inkscape:cx="196.13261"
     inkscape:cy="84.750979"
     inkscape:document-units="px"
     inkscape:current-layer="layer1"
     showgrid="false"
     inkscape:window-width="1366"
     inkscape:window-height="702"
     inkscape:window-x="0"
     inkscape:window-y="27"
     inkscape:window-maximized="1"
     fit-margin-top="0"
     fit-margin-left="0"
     fit-margin-right="0"
     fit-margin-bottom="0" />
  <defs
     id="defs4">
    <marker
       style="overflow:visible"
       id="Arrow1Lend"
       refX="0"
       refY="0"
       orient="auto"
       inkscape:stockid="Arrow1Lend">
      <path
         transform="matrix(-0.8,0,0,-0.8,-10,0)"
         style="fill-rule:evenodd;stroke:#000000;stroke-width:1pt"
         d="M 0,0 5,-5 -12.5,0 5,5 0,0 z"
         id="path3976"
         inkscape:connector-curvature="0" />
    </marker>
    <inkscape:path-effect
       fuse_tolerance="0"
       vertical_pattern="false"
       prop_units="false"
       tang_offset="0"
       normal_offset="0"
       spacing="0"
       scale_y_rel="false"
       prop_scale="1"
       copytype="repeated"
       pattern="M 0,0 1,0"
       is_visible="true"
       id="path-effect3773"
       effect="skeletal" />
    <inkscape:path-effect
       is_visible="true"
       id="path-effect3771"
       effect="spiro" />
    <inkscape:path-effect
       scale_y_rel="false"
       prop_scale="1"
       strokepath="m 22.728432,60.897463 185.868068,0"
       endpoint_spacing_variation="0;1"
       endpoint_edge_variation="0;1"
       startpoint_spacing_variation="0;1"
       startpoint_edge_variation="0;1"
       count="5"
       is_visible="true"
       id="path-effect3769"
       effect="curvestitching" />
    <inkscape:path-effect
       maxComplexity="1000"
       drawall="true"
       nbgenerations="1"
       similar_only="false"
       generator="m 22.728432,105.84925 69.027088,0 m 69.02709,0 69.02709,0"
       ref_path="m 22.728432,61.907607 207.081268,0"
       is_visible="true"
       id="path-effect3767"
       effect="vonkoch" />
    <inkscape:path-effect
       is_visible="true"
       id="path-effect3765"
       effect="spiro" />
    <inkscape:path-effect
       phi="5.4"
       teeth="13"
       is_visible="true"
       id="path-effect3763"
       effect="gears" />
  </defs>
  <metadata
     id="metadata7">
    <rdf:RDF>
      <cc:Work
         rdf:about="">
        <dc:format>image/svg+xml</dc:format>
        <dc:type
           rdf:resource="http://purl.org/dc/dcmitype/StillImage" />
        <dc:title></dc:title>
      </cc:Work>
    </rdf:RDF>
  </metadata>
  <g
     id="layer1"
     inkscape:groupmode="layer"
     inkscape:label="Layer 1"
     transform="translate(-80.84375,-54.750495)">
    <path
       d="m 283.3478,75.418404 c 0,6.764438 -5.48366,12.248099 -12.2481,12.248099 -6.76444,0 -12.2481,-5.483661 -12.2481,-12.248099 0,-6.764439 5.48366,-12.2481 12.2481,-12.2481 6.76444,0 12.2481,5.483661 12.2481,12.2481 z"
       sodipodi:ry="12.248099"
       sodipodi:rx="12.248099"
       sodipodi:cy="75.418404"
       sodipodi:cx="271.0997"
       id="path2987"
       style="fill:none;stroke:#000000;stroke-width:1;stroke-linejoin:miter;stroke-miterlimit:4;stroke-dasharray:none;stroke-dashoffset:0"
       sodipodi:type="arc" />
    <path
       sodipodi:type="arc"
       style="fill:none;stroke:#000000;stroke-width:1;stroke-linejoin:miter;stroke-miterlimit:4;stroke-dasharray:none;stroke-dashoffset:0"
       id="path2989"
       sodipodi:cx="271.0997"
       sodipodi:cy="75.418404"
       sodipodi:rx="12.248099"
       sodipodi:ry="12.248099"
       d="m 283.3478,75.418404 c 0,6.764438 -5.48366,12.248099 -12.2481,12.248099 -6.76444,0 -12.2481,-5.483661 -12.2481,-12.248099 0,-6.764439 5.48366,-12.2481 12.2481,-12.2481 6.76444,0 12.2481,5.483661 12.2481,12.2481 z" />
    <path
       inkscape:connector-curvature="0"
       id="path3787"
       d="m 257.5889,75.544671 -26.5626,0"
       style="fill:none;stroke:#000000;stroke-width:0.77749425px;stroke-linecap:butt;stroke-linejoin:miter;stroke-opacity:1;marker-end:url(#Arrow1Lend)" />
    <text
       sodipodi:linespacing="125%"
       id="text4413"
       y="65.443146"
       x="242.43661"
       style="font-size:14px;font-style:normal;font-weight:normal;line-height:125%;letter-spacing:0px;word-spacing:0px;fill:#000000;fill-opacity:1;stroke:none;font-family:Sans"
       xml:space="preserve"><tspan
         y="65.443146"
         x="242.43661"
         id="tspan4415"
         sodipodi:role="line">v</tspan></text>
    <path
       transform="translate(0,39.901026)"
       sodipodi:type="arc"
       style="fill:none;stroke:#000000;stroke-width:1;stroke-linejoin:miter;stroke-miterlimit:4;stroke-dasharray:none;stroke-dashoffset:0"
       id="path4417"
       sodipodi:cx="271.0997"
       sodipodi:cy="75.418404"
       sodipodi:rx="12.248099"
       sodipodi:ry="12.248099"
       d="m 283.3478,75.418404 c 0,6.764438 -5.48366,12.248099 -12.2481,12.248099 -6.76444,0 -12.2481,-5.483661 -12.2481,-12.248099 0,-6.764439 5.48366,-12.2481 12.2481,-12.2481 6.76444,0 12.2481,5.483661 12.2481,12.2481 z" />
    <path
       transform="translate(0,39.901026)"
       d="m 283.3478,75.418404 c 0,6.764438 -5.48366,12.248099 -12.2481,12.248099 -6.76444,0 -12.2481,-5.483661 -12.2481,-12.248099 0,-6.764439 5.48366,-12.2481 12.2481,-12.2481 6.76444,0 12.2481,5.483661 12.2481,12.2481 z"
       sodipodi:ry="12.248099"
       sodipodi:rx="12.248099"
       sodipodi:cy="75.418404"
       sodipodi:cx="271.0997"
       id="path4419"
       style="fill:none;stroke:#000000;stroke-width:1;stroke-linejoin:miter;stroke-miterlimit:4;stroke-dasharray:none;stroke-dashoffset:0"
       sodipodi:type="arc" />
    <path
       style="fill:none;stroke:#000000;stroke-width:0.82226276px;stroke-linecap:butt;stroke-linejoin:miter;stroke-opacity:1;marker-end:url(#Arrow1Lend)"
       d="m 283.85286,114.94062 29.70965,0"
       id="path4421"
       inkscape:connector-curvature="0" />
    <text
       xml:space="preserve"
       style="font-size:14px;font-style:normal;font-weight:normal;line-height:125%;letter-spacing:0px;word-spacing:0px;fill:#000000;fill-opacity:1;stroke:none;font-family:Sans"
       x="288.90363"
       y="105.34418"
       id="text4423"
       sodipodi:linespacing="125%"><tspan
         sodipodi:role="line"
         id="tspan4425"
         x="288.90363"
         y="105.34418">v</tspan></text>
    <path
       sodipodi:type="arc"
       style="fill:none;stroke:#000000;stroke-width:1;stroke-linejoin:miter;stroke-miterlimit:4;stroke-dasharray:none;stroke-dashoffset:0"
       id="path4427"
       sodipodi:cx="271.0997"
       sodipodi:cy="75.418404"
       sodipodi:rx="12.248099"
       sodipodi:ry="12.248099"
       d="m 283.3478,75.418404 c 0,6.764438 -5.48366,12.248099 -12.2481,12.248099 -6.76444,0 -12.2481,-5.483661 -12.2481,-12.248099 0,-6.764439 5.48366,-12.2481 12.2481,-12.2481 6.76444,0 12.2481,5.483661 12.2481,12.2481 z"
       transform="translate(0,79.802052)" />
    <path
       id="path5073"
       title="sin(3*x)"
       d="m 82.229937,75.797206 c 0.945404,-2.034332 1.890808,-4.0679 2.836212,-5.964993 0.945404,-1.897094 1.890808,-3.655746 2.836212,-5.159389 0.945404,-1.503642 1.890808,-2.749862 2.836212,-3.656978 0.945404,-0.907117 1.890807,-1.472596 2.836211,-1.660675 0.945404,-0.188078 1.890808,0.0036 2.836212,0.559914 0.945404,0.55636 1.890808,1.479224 2.836212,2.704882 0.945402,1.225659 1.890812,2.755116 2.836212,4.484542 0.9454,1.729426 1.89081,3.658913 2.83621,5.658538 0.94541,1.999625 1.89081,4.068556 2.83621,6.068318 0.94541,1.999763 1.89081,3.928717 2.83621,5.658539 0.94541,1.729821 1.89081,3.258282 2.83622,4.484541 0.9454,1.226259 1.8908,2.147799 2.83621,2.704882 0.9454,0.557083 1.89081,0.747244 2.83621,0.559914 0.9454,-0.18733 1.89081,-0.754231 2.83621,-1.660674 0.94541,-0.906444 1.89081,-2.153843 2.83621,-3.656979 0.94541,-1.503136 1.89081,-3.262566 2.83622,-5.159388 0.9454,-1.896822 1.8908,-3.930662 2.83621,-5.964994 0.9454,-2.034332 1.89081,-4.0679 2.83621,-5.964993 0.9454,-1.897094 1.89081,-3.655746 2.83621,-5.159389 0.9454,-1.503642 1.89081,-2.749862 2.83621,-3.656978 0.94541,-0.907117 1.89081,-1.472596 2.83621,-1.660675 0.94541,-0.188078 1.89081,0.0036 2.83622,0.559914 0.9454,0.55636 1.8908,1.479224 2.83621,2.704882 0.9454,1.225659 1.89081,2.755116 2.83621,4.484542 0.9454,1.729426 1.89081,3.658913 2.83621,5.658538 0.94541,1.999625 1.89081,4.068556 2.83621,6.068318 0.94541,1.999763 1.89081,3.928717 2.83621,5.658539 0.94541,1.729821 1.89081,3.258282 2.83622,4.484541 0.9454,1.226259 1.8908,2.147799 2.83621,2.704882 0.9454,0.557083 1.89081,0.747244 2.83621,0.559914 0.9454,-0.18733 1.89081,-0.754231 2.83621,-1.660674 0.94541,-0.906444 1.89081,-2.153843 2.83621,-3.656979 0.94541,-1.503136 1.89081,-3.262566 2.83622,-5.159388 0.9454,-1.896822 1.8908,-3.930662 2.83621,-5.964994 0.9454,-2.034332 1.89081,-4.0679 2.83621,-5.964993 0.9454,-1.897094 1.89081,-3.655746 2.83621,-5.159389 0.9454,-1.503642 1.89081,-2.749862 2.83621,-3.656978 0.94541,-0.907117 1.89081,-1.472596 2.83621,-1.660675 0.94541,-0.188078 1.89081,0.0036 2.83622,0.559914 0.9454,0.55636 1.8908,1.479224 2.83621,2.704882 0.9454,1.225659 1.89081,2.755116 2.83621,4.484542 0.9454,1.729426 1.89081,3.658913 2.83621,5.658538 0.94541,1.999625 1.89081,4.068556 2.83621,6.068318 0.94541,1.999763 1.89081,3.928717 2.83621,5.658539 0.94541,1.729821 1.89081,3.258282 2.83622,4.484541 0.9454,1.226259 1.8908,2.147799 2.83621,2.704882 0.9454,0.557083 1.89081,0.747244 2.83621,0.559914 0.9454,-0.18733 1.89081,-0.754231 2.83621,-1.660674 0.94541,-0.906444 1.89081,-2.153843 2.83621,-3.656979 0.94541,-1.503136 1.89081,-3.262566 2.83622,-5.159388 0.9454,-1.896822 1.8908,-3.930662 2.83621,-5.964994"
       style="fill:none;stroke:#000000;stroke-width:0.80500704;stroke-linejoin:miter;stroke-miterlimit:4;stroke-dasharray:none;stroke-dashoffset:0"
       inkscape:connector-curvature="0" />
    <path
       style="fill:none;stroke:#000000;stroke-width:0.80500704;stroke-linejoin:miter;stroke-miterlimit:4;stroke-dasharray:none;stroke-dashoffset:0"
       d="m 83.24009,115.69824 c 0.945404,-4.74677 1.890808,-9.44976 2.836212,-12.53965 0.945404,-3.0899 1.890807,-4.5035 2.836211,-3.777407 0.945404,0.726097 1.890808,3.589647 2.836212,7.624357 0.945404,4.03471 1.890808,9.17448 2.836212,13.6985 0.945404,4.52402 1.890808,8.34852 2.836212,10.20063 0.945404,1.85211 1.890808,1.68892 2.836211,-0.42507 0.9454,-2.11399 1.89081,-6.15083 2.83621,-10.75374 0.94541,-4.60291 1.89081,-9.69261 2.83621,-13.5681 0.94541,-3.87548 1.89081,-6.46154 2.83622,-6.901555 0.9454,-0.440015 1.8908,1.284615 2.83621,4.587535 0.9454,3.30292 1.89081,8.13313 2.83621,12.87102 0.9454,4.7379 1.89081,9.29851 2.83621,12.16072 0.9454,2.8622 1.89081,3.96643 2.83621,2.95294 0.94541,-1.01349 1.89081,-4.13724 2.83621,-8.31824 0.94541,-4.18099 1.89081,-9.34996 2.83622,-13.77693 0.9454,-4.42698 1.8908,-8.02928 2.83621,-9.60882 0.9454,-1.579547 1.89081,-1.098027 2.83621,1.27359 0.9454,2.37161 1.89081,6.60049 2.83621,11.26606 0.94541,4.66558 1.89081,9.68682 2.83621,13.38622 0.94541,3.69941 1.89081,6.00436 2.83622,6.15258 0.9454,0.14823 1.8908,-1.87373 2.83621,-5.38026 0.9454,-3.50653 1.8908,-8.44252 2.83621,-13.15357 0.9454,-4.71105 1.89081,-9.11199 2.83621,-11.73565 0.9454,-2.623656 1.89081,-3.414329 2.83621,-2.117281 0.94541,1.297051 1.89081,4.669141 2.83621,8.980561 0.94541,4.31142 1.89081,9.48998 2.83622,13.80312 0.9454,4.31313 1.8908,7.67958 2.83621,8.98056 0.9454,1.30099 1.89081,0.50296 2.83621,-2.11728 0.9454,-2.62025 1.89081,-7.02511 2.83621,-11.73565 0.9454,-4.71055 1.89081,-9.64428 2.83621,-13.15357 0.94541,-3.50929 1.89081,-5.524394 2.83621,-5.380263 0.94541,0.144132 1.89081,2.455743 2.83622,6.152583 0.9454,3.69683 1.8908,8.71989 2.83621,13.38622 0.9454,4.66633 1.89081,8.8909 2.83621,11.26606 0.9454,2.37516 1.89081,2.84928 2.83621,1.27359 0.94541,-1.57568 1.89081,-5.18332 2.83621,-9.60882 0.94541,-4.42549 1.89081,-9.594 2.83622,-13.77694 0.9454,-4.18293 1.8908,-7.30074 2.83621,-8.318233 0.9454,-1.017491 1.8908,0.09401 2.83621,2.952943 0.9454,2.85894 1.89081,7.42307 2.83621,12.16072 0.9454,4.73764 1.89081,9.56516 2.83621,12.87102 0.94541,3.30586 1.89081,5.02347 2.83621,4.58753 0.94541,-0.43593 1.89081,-3.02844 2.83622,-6.90155 0.9454,-3.87312 1.8908,-8.96419 2.83621,-13.5681 0.9454,-4.60391 1.89081,-8.63609 2.83621,-10.75374 0.9454,-2.117652 1.89081,-2.273409 2.83621,-0.42507 0.9454,1.84834 1.89081,5.67785 2.83621,10.20063 0.94541,4.52278 1.89081,9.66163 2.83621,13.6985 0.94541,4.03686 1.89081,6.89422 2.83622,7.62436 0.9454,0.73013 1.8908,-0.69062 2.83621,-3.77741 0.9454,-3.08678 1.89081,-7.79288 2.83621,-12.53965"
       title="sin(7*x)"
       id="path5126"
       inkscape:connector-curvature="0" />
    <path
       id="path5179"
       title="sin(5*x)"
       d="m 81.219785,159.1348 c 0.945404,-3.39056 1.890808,-6.77252 2.836212,-9.54048 0.945403,-2.76796 1.890807,-4.90549 2.836211,-6.03334 0.945404,-1.12785 1.890808,-1.23517 2.836212,-0.30831 0.945404,0.92687 1.890808,2.8892 2.836212,5.53006 0.945404,2.64086 1.890808,5.95148 2.836212,9.33554 0.945403,3.38406 1.890807,6.82597 2.836211,9.70922 0.945404,2.88326 1.890805,5.19118 2.836215,6.51373 0.9454,1.32256 1.8908,1.64809 2.83621,0.92376 0.9454,-0.72433 1.89081,-2.50086 2.83621,-5.0058 0.9454,-2.50495 1.89081,-5.73047 2.83621,-9.09519 0.94541,-3.36473 1.89081,-6.85353 2.83621,-9.84114 0.94541,-2.98761 1.89081,-5.45718 2.83622,-6.96942 0.9454,-1.51223 1.8908,-2.05474 2.83621,-1.53569 0.9454,0.51905 1.89081,2.10302 2.83621,4.46255 0.9454,2.35953 1.89081,5.48772 2.83621,8.82035 0.94541,3.33263 1.89081,6.85508 2.83621,9.93571 0.94541,3.08064 1.89081,5.70249 2.83621,7.39867 0.94541,1.69618 1.89081,2.45361 2.83622,2.14181 0.9454,-0.3118 1.8908,-1.69722 2.83621,-3.90238 0.9454,-2.20516 1.89081,-5.22414 2.83621,-8.51204 0.9454,-3.28789 1.89081,-6.83063 2.83621,-9.99261 0.94541,-3.16197 1.89081,-5.92615 2.83621,-7.79984 0.94541,-1.8737 1.89081,-2.84318 2.83622,-2.73981 0.9454,0.10337 1.8908,1.28498 2.83621,3.32741 0.9454,2.04243 1.8908,4.94075 2.83621,8.17143 0.9454,3.23069 1.89081,6.78029 2.83621,10.01161 0.9454,3.23131 1.89081,6.12734 2.83621,8.17143 0.94541,2.0441 1.89081,3.22195 2.83621,3.32741 0.94541,0.10545 1.89081,-0.86785 2.83622,-2.73981 0.9454,-1.87195 1.8908,-4.63862 2.83621,-7.79984 0.9454,-3.16122 1.89081,-6.70421 2.83621,-9.99261 0.9454,-3.28841 1.89081,-6.30529 2.83621,-8.51204 0.94541,-2.20675 1.89081,-3.5885 2.83621,-3.90238 0.94541,-0.31388 1.89081,0.44744 2.83621,2.14181 0.94541,1.69438 1.89081,4.3189 2.83622,7.39867 0.9454,3.07976 1.8908,6.6027 2.83621,9.93571 0.9454,3.33302 1.89081,6.45932 2.83621,8.82035 0.9454,2.36103 1.89081,3.94144 2.83621,4.46255 0.94541,0.52112 1.89081,-0.0253 2.83621,-1.53569 0.94541,-1.51037 1.89081,-3.98279 2.83622,-6.96942 0.9454,-2.98662 1.8908,-6.47615 2.83621,-9.84113 0.9454,-3.36499 1.8908,-6.58884 2.83621,-9.0952 0.9454,-2.50635 1.89081,-4.27943 2.83621,-5.0058 0.9454,-0.72637 1.89081,-0.39687 2.83621,0.92376 0.94541,1.32062 1.89081,3.63157 2.83621,6.51373 0.94541,2.88215 1.89081,6.32503 2.83622,9.70922 0.9454,3.38418 1.8908,6.69337 2.83621,9.33554 0.9454,2.64217 1.89081,4.60118 2.83621,5.53006 0.9454,0.92887 1.89081,0.81757 2.83621,-0.30831 0.94541,-1.12588 1.89081,-3.26658 2.83621,-6.03334 0.94541,-2.76675 1.89081,-6.14992 2.83621,-9.54047"
       style="fill:none;stroke:#000000;stroke-width:0.80500704;stroke-linejoin:miter;stroke-miterlimit:4;stroke-dasharray:none;stroke-dashoffset:0"
       inkscape:connector-curvature="0" />
    <text
       xml:space="preserve"
       style="font-size:14px;font-style:normal;font-weight:normal;line-height:125%;letter-spacing:0px;word-spacing:0px;fill:#000000;fill-opacity:1;stroke:none;font-family:Sans"
       x="89.398506"
       y="198.2782"
       id="text5210"
       sodipodi:linespacing="125%"><tspan
         sodipodi:role="line"
         x="89.398506"
         y="198.2782"
         id="tspan5606">Probe beam absorbed</tspan><tspan
         sodipodi:role="line"
         x="89.398506"
         y="215.7782"
         id="tspan5613">at many frequencies</tspan><tspan
         sodipodi:role="line"
         x="89.398506"
         y="233.2782"
         id="tspan5640">from Doppler effect.</tspan><tspan
         sodipodi:role="line"
         x="89.398506"
         y="250.7782"
         id="tspan5582" /></text>
    <path
       style="fill:none;stroke:#000000;stroke-width:0.80500704;stroke-linejoin:miter;stroke-miterlimit:4;stroke-dasharray:none;stroke-dashoffset:0"
       d="m 316.08025,158.12465 c 0.94541,-3.39056 1.89081,-6.77252 2.83621,-9.54048 0.94541,-2.76796 1.89081,-4.90548 2.83622,-6.03334 0.9454,-1.12785 1.8908,-1.23517 2.83621,-0.3083 0.9454,0.92686 1.89081,2.88919 2.83621,5.53005 0.9454,2.64086 1.89081,5.95149 2.83621,9.33554 0.94541,3.38406 1.89081,6.82597 2.83621,9.70922 0.94541,2.88326 1.89081,5.19118 2.83622,6.51373 0.9454,1.32256 1.8908,1.64809 2.83621,0.92376 0.9454,-0.72433 1.8908,-2.50086 2.83621,-5.0058 0.9454,-2.50495 1.89081,-5.73047 2.83621,-9.09519 0.9454,-3.36473 1.89081,-6.85353 2.83621,-9.84114 0.94541,-2.98761 1.89081,-5.45718 2.83621,-6.96941 0.94541,-1.51224 1.89081,-2.05475 2.83622,-1.5357 0.9454,0.51905 1.8908,2.10303 2.83621,4.46255 0.9454,2.35953 1.89081,5.48772 2.83621,8.82035 0.9454,3.33263 1.89081,6.85508 2.83621,9.93572 0.9454,3.08063 1.89081,5.70248 2.83621,7.39866 0.94541,1.69618 1.89081,2.45361 2.83621,2.14181 0.94541,-0.3118 1.89081,-1.69722 2.83622,-3.90238 0.9454,-2.20516 1.8908,-5.22414 2.83621,-8.51203 0.9454,-3.2879 1.89081,-6.83064 2.83621,-9.99262 0.9454,-3.16197 1.89081,-5.92615 2.83621,-7.79984 0.94541,-1.87369 1.89081,-2.84317 2.83621,-2.73981 0.94541,0.10337 1.89081,1.28498 2.83622,3.32741 0.9454,2.04243 1.8908,4.94075 2.83621,8.17144 0.9454,3.23068 1.8908,6.78028 2.83621,10.0116 0.9454,3.23131 1.89081,6.12734 2.83621,8.17144 0.9454,2.04409 1.89081,3.22194 2.83621,3.3274 0.94541,0.10546 1.89081,-0.86785 2.83621,-2.73981 0.94541,-1.87195 1.89081,-4.63862 2.83622,-7.79984 0.9454,-3.16122 1.8908,-6.70421 2.83621,-9.99261 0.9454,-3.28841 1.89081,-6.30529 2.83621,-8.51204 0.9454,-2.20675 1.89081,-3.5885 2.83621,-3.90238 0.9454,-0.31388 1.89081,0.44744 2.83621,2.14181 0.94541,1.69438 1.89081,4.3189 2.83621,7.39867 0.94541,3.07976 1.89081,6.6027 2.83622,9.93572 0.9454,3.33301 1.8908,6.45931 2.83621,8.82034 0.9454,2.36103 1.89081,3.94144 2.83621,4.46255 0.9454,0.52112 1.89081,-0.0253 2.83621,-1.53569 0.94541,-1.51037 1.89081,-3.98279 2.83621,-6.96942 0.94541,-2.98662 1.89081,-6.47615 2.83622,-9.84113 0.9454,-3.36499 1.8908,-6.58884 2.83621,-9.0952 0.9454,-2.50635 1.8908,-4.27942 2.83621,-5.0058 0.9454,-0.72637 1.89081,-0.39687 2.83621,0.92376 0.9454,1.32063 1.89081,3.63157 2.83621,6.51373 0.94541,2.88216 1.89081,6.32503 2.83621,9.70922 0.94541,3.38419 1.89081,6.69337 2.83622,9.33554 0.9454,2.64217 1.8908,4.60118 2.83621,5.53006 0.9454,0.92887 1.89081,0.81757 2.83621,-0.30831 0.9454,-1.12588 1.89081,-3.26658 2.83621,-6.03334 0.9454,-2.76675 1.89081,-6.14992 2.83621,-9.54047"
       title="sin(5*x)"
       id="path5584"
       inkscape:connector-curvature="0" />
    <text
       xml:space="preserve"
       style="font-size:14px;font-style:normal;font-weight:normal;line-height:125%;letter-spacing:0px;word-spacing:0px;fill:#000000;fill-opacity:1;stroke:none;font-family:Sans"
       x="300.01532"
       y="199.28835"
       id="text5586"
       sodipodi:linespacing="125%"><tspan
         sodipodi:role="line"
         x="300.01532"
         y="199.28835"
         id="tspan5590">Particles with zero</tspan><tspan
         sodipodi:role="line"
         x="300.01532"
         y="216.78835"
         id="tspan5617">horizontal velocity affected</tspan><tspan
         sodipodi:role="line"
         x="300.01532"
         y="234.28835"
         id="tspan5642">by pump beam.</tspan></text>
    <text
       xml:space="preserve"
       style="font-size:14px;font-style:normal;font-weight:normal;line-height:125%;letter-spacing:0px;word-spacing:0px;fill:#000000;fill-opacity:1;stroke:none;font-family:Sans"
       x="345.4722"
       y="92.717262"
       id="text5592"
       sodipodi:linespacing="125%"><tspan
         sodipodi:role="line"
         id="tspan5594"
         x="345.4722"
         y="92.717262">Unresponsive</tspan><tspan
         sodipodi:role="line"
         x="345.4722"
         y="110.21726"
         id="tspan5596">to pump beam</tspan></text>
    <text
       xml:space="preserve"
       style="font-size:41.0557251px;font-style:normal;font-weight:normal;line-height:125%;letter-spacing:0px;word-spacing:0px;fill:#000000;fill-opacity:1;stroke:none;font-family:Sans"
       x="650.89984"
       y="58.376652"
       id="text5598"
       sodipodi:linespacing="125%"
       transform="scale(0.49650552,2.0140763)"><tspan
         sodipodi:role="line"
         id="tspan5600"
         x="650.89984"
         y="58.376652">}</tspan></text>
  </g>
</svg>
