<?xml version="1.0" encoding="UTF-8" standalone="no"?>
<!-- Created with Inkscape (http://www.inkscape.org/) -->

<svg
   xmlns:dc="http://purl.org/dc/elements/1.1/"
   xmlns:cc="http://creativecommons.org/ns#"
   xmlns:rdf="http://www.w3.org/1999/02/22-rdf-syntax-ns#"
   xmlns:svg="http://www.w3.org/2000/svg"
   xmlns="http://www.w3.org/2000/svg"
   xmlns:sodipodi="http://sodipodi.sourceforge.net/DTD/sodipodi-0.dtd"
   xmlns:inkscape="http://www.inkscape.org/namespaces/inkscape"
   width="744.09448819"
   height="1052.3622047"
   id="svg2"
   version="1.1"
   inkscape:version="0.48.4 r9939"
   sodipodi:docname="sideband_encoding.svg">
  <sodipodi:namedview
     id="base"
     pagecolor="#ffffff"
     bordercolor="#666666"
     borderopacity="1.0"
     inkscape:pageopacity="0.0"
     inkscape:pageshadow="2"
     inkscape:zoom="0.7"
     inkscape:cx="353.2806"
     inkscape:cy="608.85081"
     inkscape:document-units="px"
     inkscape:current-layer="layer1"
     showgrid="false"
     inkscape:window-width="1920"
     inkscape:window-height="1017"
     inkscape:window-x="-8"
     inkscape:window-y="-8"
     inkscape:window-maximized="1" />
  <defs
     id="defs4">
    <marker
       inkscape:stockid="Arrow1Mend"
       orient="auto"
       refY="0.0"
       refX="0.0"
       id="Arrow1Mend"
       style="overflow:visible;">
      <path
         id="path3774"
         d="M 0.0,0.0 L 5.0,-5.0 L -12.5,0.0 L 5.0,5.0 L 0.0,0.0 z "
         style="fill-rule:evenodd;stroke:#000000;stroke-width:1.0pt;"
         transform="scale(0.4) rotate(180) translate(10,0)" />
    </marker>
    <marker
       style="overflow:visible;"
       id="Arrow1Send"
       refX="0.0"
       refY="0.0"
       orient="auto"
       inkscape:stockid="Arrow1Send">
      <path
         transform="scale(0.2) rotate(180) translate(6,0)"
         style="fill-rule:evenodd;stroke:#000000;stroke-width:1.0pt;"
         d="M 0.0,0.0 L 5.0,-5.0 L -12.5,0.0 L 5.0,5.0 L 0.0,0.0 z "
         id="path3780" />
    </marker>
    <marker
       style="overflow:visible;"
       id="Arrow1Lend"
       refX="0.0"
       refY="0.0"
       orient="auto"
       inkscape:stockid="Arrow1Lend">
      <path
         transform="scale(0.8) rotate(180) translate(12.5,0)"
         style="fill-rule:evenodd;stroke:#000000;stroke-width:1.0pt;"
         d="M 0.0,0.0 L 5.0,-5.0 L -12.5,0.0 L 5.0,5.0 L 0.0,0.0 z "
         id="path3768" />
    </marker>
    <marker
       style="overflow:visible"
       id="Arrow1Send-1"
       refX="0"
       refY="0"
       orient="auto"
       inkscape:stockid="Arrow1Send">
      <path
         transform="matrix(-0.2,0,0,-0.2,-1.2,0)"
         style="fill-rule:evenodd;stroke:#000000;stroke-width:1pt"
         d="M 0,0 5,-5 -12.5,0 5,5 0,0 z"
         id="path3780-7"
         inkscape:connector-curvature="0" />
    </marker>
    <marker
       style="overflow:visible"
       id="Arrow1Send-0"
       refX="0"
       refY="0"
       orient="auto"
       inkscape:stockid="Arrow1Send">
      <path
         transform="matrix(-0.2,0,0,-0.2,-1.2,0)"
         style="fill-rule:evenodd;stroke:#000000;stroke-width:1pt"
         d="M 0,0 5,-5 -12.5,0 5,5 0,0 z"
         id="path3780-9"
         inkscape:connector-curvature="0" />
    </marker>
    <marker
       style="overflow:visible"
       id="Arrow1Send-8"
       refX="0"
       refY="0"
       orient="auto"
       inkscape:stockid="Arrow1Send">
      <path
         transform="matrix(-0.2,0,0,-0.2,-1.2,0)"
         style="fill-rule:evenodd;stroke:#000000;stroke-width:1pt"
         d="M 0,0 5,-5 -12.5,0 5,5 0,0 z"
         id="path3780-2"
         inkscape:connector-curvature="0" />
    </marker>
    <marker
       style="overflow:visible"
       id="Arrow1Send-3"
       refX="0"
       refY="0"
       orient="auto"
       inkscape:stockid="Arrow1Send">
      <path
         transform="matrix(-0.2,0,0,-0.2,-1.2,0)"
         style="fill-rule:evenodd;stroke:#000000;stroke-width:1pt"
         d="M 0,0 5,-5 -12.5,0 5,5 0,0 z"
         id="path3780-22"
         inkscape:connector-curvature="0" />
    </marker>
    <marker
       style="overflow:visible"
       id="marker4523"
       refX="0"
       refY="0"
       orient="auto"
       inkscape:stockid="Arrow1Send">
      <path
         transform="matrix(-0.2,0,0,-0.2,-1.2,0)"
         style="fill-rule:evenodd;stroke:#000000;stroke-width:1pt"
         d="M 0,0 5,-5 -12.5,0 5,5 0,0 z"
         id="path4525"
         inkscape:connector-curvature="0" />
    </marker>
    <marker
       style="overflow:visible"
       id="marker4527"
       refX="0"
       refY="0"
       orient="auto"
       inkscape:stockid="Arrow1Send">
      <path
         transform="matrix(-0.2,0,0,-0.2,-1.2,0)"
         style="fill-rule:evenodd;stroke:#000000;stroke-width:1pt"
         d="M 0,0 5,-5 -12.5,0 5,5 0,0 z"
         id="path4529"
         inkscape:connector-curvature="0" />
    </marker>
    <marker
       style="overflow:visible"
       id="marker4531"
       refX="0"
       refY="0"
       orient="auto"
       inkscape:stockid="Arrow1Send">
      <path
         transform="matrix(-0.2,0,0,-0.2,-1.2,0)"
         style="fill-rule:evenodd;stroke:#000000;stroke-width:1pt"
         d="M 0,0 5,-5 -12.5,0 5,5 0,0 z"
         id="path4533"
         inkscape:connector-curvature="0" />
    </marker>
    <marker
       style="overflow:visible"
       id="Arrow1Send-4"
       refX="0"
       refY="0"
       orient="auto"
       inkscape:stockid="Arrow1Send">
      <path
         transform="matrix(-0.2,0,0,-0.2,-1.2,0)"
         style="fill-rule:evenodd;stroke:#000000;stroke-width:1pt"
         d="M 0,0 5,-5 -12.5,0 5,5 0,0 z"
         id="path3780-1"
         inkscape:connector-curvature="0" />
    </marker>
    <marker
       style="overflow:visible"
       id="Arrow1Send-7"
       refX="0"
       refY="0"
       orient="auto"
       inkscape:stockid="Arrow1Send">
      <path
         transform="matrix(-0.2,0,0,-0.2,-1.2,0)"
         style="fill-rule:evenodd;stroke:#000000;stroke-width:1pt"
         d="M 0,0 5,-5 -12.5,0 5,5 0,0 z"
         id="path3780-4"
         inkscape:connector-curvature="0" />
    </marker>
    <marker
       style="overflow:visible"
       id="Arrow1Send-77"
       refX="0"
       refY="0"
       orient="auto"
       inkscape:stockid="Arrow1Send">
      <path
         transform="matrix(-0.2,0,0,-0.2,-1.2,0)"
         style="fill-rule:evenodd;stroke:#000000;stroke-width:1pt"
         d="M 0,0 5,-5 -12.5,0 5,5 0,0 z"
         id="path3780-93"
         inkscape:connector-curvature="0" />
    </marker>
    <marker
       style="overflow:visible"
       id="Arrow1Send-77-0"
       refX="0"
       refY="0"
       orient="auto"
       inkscape:stockid="Arrow1Send">
      <path
         transform="matrix(-0.2,0,0,-0.2,-1.2,0)"
         style="fill-rule:evenodd;stroke:#000000;stroke-width:1pt"
         d="M 0,0 5,-5 -12.5,0 5,5 0,0 z"
         id="path3780-93-2"
         inkscape:connector-curvature="0" />
    </marker>
  </defs>
  <metadata
     id="metadata7">
    <rdf:RDF>
      <cc:Work
         rdf:about="">
        <dc:format>image/svg+xml</dc:format>
        <dc:type
           rdf:resource="http://purl.org/dc/dcmitype/StillImage" />
        <dc:title />
      </cc:Work>
    </rdf:RDF>
  </metadata>
  <g
     id="layer1"
     inkscape:groupmode="layer"
     inkscape:label="Layer 1">
    <rect
       y="51.060654"
       x="294.41275"
       height="138.31734"
       width="163.31734"
       id="rect2985"
       style="fill:none;stroke:#000000;stroke-width:6.6826582;stroke-miterlimit:4;stroke-opacity:1;stroke-dasharray:none;stroke-dashoffset:0"
       inkscape:export-filename="E:\University Stuff\ENPH 479\final\figures\sat_abs_beams.png"
       inkscape:export-xdpi="200"
       inkscape:export-ydpi="200" />
    <text
       transform="scale(0.96414918,1.0371839)"
       sodipodi:linespacing="125%"
       id="text3755"
       y="176.73489"
       x="313.53937"
       style="font-size:11.39476967px;font-style:normal;font-weight:normal;line-height:125%;letter-spacing:0px;word-spacing:0px;fill:#000000;fill-opacity:1;stroke:none;font-family:Sans"
       xml:space="preserve"
       inkscape:export-filename="E:\University Stuff\ENPH 479\final\figures\sat_abs_beams.png"
       inkscape:export-xdpi="200"
       inkscape:export-ydpi="200"><tspan
         style="font-size:27.34744835px;font-weight:bold;-inkscape-font-specification:Sans Bold"
         y="176.73489"
         x="313.53937"
         id="tspan3757"
         sodipodi:role="line">Rb</tspan></text>
    <path
       sodipodi:nodetypes="cc"
       inkscape:connector-curvature="0"
       id="path3759"
       d="m 183.86076,133.07647 353.88338,0"
       style="fill:none;stroke:#000000;stroke-width:5.1413703;stroke-linecap:butt;stroke-linejoin:miter;stroke-miterlimit:4;stroke-opacity:1;stroke-dasharray:none;marker-end:url(#Arrow1Send)"
       inkscape:export-filename="E:\University Stuff\ENPH 479\final\figures\sat_abs_beams.png"
       inkscape:export-xdpi="200"
       inkscape:export-ydpi="200" />
    <path
       sodipodi:nodetypes="cc"
       inkscape:connector-curvature="0"
       id="path3759-4"
       d="m 183.86076,153.07647 352.87324,0"
       style="fill:none;stroke:#000000;stroke-width:5.1413703;stroke-linecap:butt;stroke-linejoin:miter;stroke-miterlimit:4;stroke-opacity:1;stroke-dasharray:none;marker-end:url(#Arrow1Send)"
       inkscape:export-filename="E:\University Stuff\ENPH 479\final\figures\sat_abs_beams.png"
       inkscape:export-xdpi="200"
       inkscape:export-ydpi="200" />
    <path
       sodipodi:nodetypes="cc"
       inkscape:connector-curvature="0"
       id="path3759-48"
       d="m 184.36584,111.64789 350.34786,0"
       style="fill:none;stroke:#000000;stroke-width:5.1413703;stroke-linecap:butt;stroke-linejoin:miter;stroke-miterlimit:4;stroke-opacity:1;stroke-dasharray:none;marker-end:url(#Arrow1Send)"
       inkscape:export-filename="E:\University Stuff\ENPH 479\final\figures\sat_abs_beams.png"
       inkscape:export-xdpi="200"
       inkscape:export-ydpi="200" />
    <path
       sodipodi:nodetypes="cc"
       inkscape:connector-curvature="0"
       id="path3759-48-4"
       d="m 542.54057,78.076468 -325.0073,0"
       style="fill:none;stroke:#000000;stroke-width:19.51978302;stroke-linecap:butt;stroke-linejoin:miter;stroke-miterlimit:4;stroke-opacity:1;stroke-dasharray:none;marker-end:url(#Arrow1Send)"
       inkscape:export-filename="E:\University Stuff\ENPH 479\final\figures\sat_abs_beams.png"
       inkscape:export-xdpi="200"
       inkscape:export-ydpi="200" />
    <text
       sodipodi:linespacing="125%"
       id="text4450"
       y="128.07648"
       x="221.11816"
       style="font-size:20px;font-style:normal;font-weight:normal;line-height:125%;letter-spacing:0px;word-spacing:0px;fill:#000000;fill-opacity:1;stroke:none;font-family:Sans"
       xml:space="preserve"
       inkscape:export-filename="E:\University Stuff\ENPH 479\final\figures\sat_abs_beams.png"
       inkscape:export-xdpi="200"
       inkscape:export-ydpi="200"><tspan
         style="font-weight:bold;-inkscape-font-specification:Sans Bold"
         y="128.07648"
         x="221.11816"
         id="tspan4452"
         sodipodi:role="line">ω + Ω</tspan></text>
    <text
       sodipodi:linespacing="125%"
       id="text4450-5"
       y="172.3824"
       x="223.61816"
       style="font-size:20px;font-style:normal;font-weight:normal;line-height:125%;letter-spacing:0px;word-spacing:0px;fill:#000000;fill-opacity:1;stroke:none;font-family:Sans"
       xml:space="preserve"
       inkscape:export-filename="E:\University Stuff\ENPH 479\final\figures\sat_abs_beams.png"
       inkscape:export-xdpi="200"
       inkscape:export-ydpi="200"><tspan
         style="font-weight:bold;-inkscape-font-specification:Sans Bold"
         y="172.3824"
         x="223.61816"
         id="tspan4452-5"
         sodipodi:role="line">ω - Ω</tspan></text>
    <text
       sodipodi:linespacing="125%"
       id="text4450-1"
       y="148.09669"
       x="240.42969"
       style="font-size:20px;font-style:normal;font-weight:normal;line-height:125%;letter-spacing:0px;word-spacing:0px;fill:#000000;fill-opacity:1;stroke:none;font-family:Sans"
       xml:space="preserve"
       inkscape:export-filename="E:\University Stuff\ENPH 479\final\figures\sat_abs_beams.png"
       inkscape:export-xdpi="200"
       inkscape:export-ydpi="200"><tspan
         style="font-weight:bold;-inkscape-font-specification:Sans Bold"
         y="148.09669"
         x="240.42969"
         id="tspan4452-7"
         sodipodi:role="line">ω</tspan></text>
    <text
       transform="scale(1.0388165,0.96263394)"
       sodipodi:linespacing="125%"
       id="text4450-11"
       y="65.709953"
       x="465.34488"
       style="font-size:33.00359726px;font-style:normal;font-weight:normal;line-height:125%;letter-spacing:0px;word-spacing:0px;fill:#000000;fill-opacity:1;stroke:none;font-family:Sans"
       xml:space="preserve"
       inkscape:export-filename="E:\University Stuff\ENPH 479\final\figures\sat_abs_beams.png"
       inkscape:export-xdpi="200"
       inkscape:export-ydpi="200"><tspan
         style="font-weight:bold;-inkscape-font-specification:Sans Bold"
         y="65.709953"
         x="465.34488"
         id="tspan4452-52"
         sodipodi:role="line">ω</tspan></text>
    <text
       sodipodi:linespacing="125%"
       id="text4450-7"
       y="139.31606"
       x="120.8462"
       style="font-size:20px;font-style:normal;font-weight:normal;line-height:125%;letter-spacing:0px;word-spacing:0px;fill:#000000;fill-opacity:1;stroke:none;font-family:Sans"
       xml:space="preserve"
       inkscape:export-filename="E:\University Stuff\ENPH 479\final\figures\sat_abs_beams.png"
       inkscape:export-xdpi="200"
       inkscape:export-ydpi="200"><tspan
         style="font-weight:bold;-inkscape-font-specification:Sans Bold"
         y="139.31606"
         x="120.8462"
         id="tspan4452-6"
         sodipodi:role="line">Probe</tspan></text>
    <text
       sodipodi:linespacing="125%"
       id="text4450-14"
       y="86.963997"
       x="549.86682"
       style="font-size:20px;font-style:normal;font-weight:normal;line-height:125%;letter-spacing:0px;word-spacing:0px;fill:#000000;fill-opacity:1;stroke:none;font-family:Sans"
       xml:space="preserve"
       inkscape:export-filename="E:\University Stuff\ENPH 479\final\figures\sat_abs_beams.png"
       inkscape:export-xdpi="200"
       inkscape:export-ydpi="200"><tspan
         style="font-size:28px;font-weight:bold;-inkscape-font-specification:Sans Bold"
         y="86.963997"
         x="549.86682"
         id="tspan4452-2"
         sodipodi:role="line">Pump</tspan></text>
    <rect
       y="333.78903"
       x="289.04935"
       height="196.61504"
       width="162.0632"
       id="rect2985-1"
       style="fill:none;stroke:#000000;stroke-width:7.93679857;stroke-miterlimit:4;stroke-opacity:1;stroke-dasharray:none;stroke-dashoffset:0"
       inkscape:export-filename="E:\University Stuff\ENPH 479\final\figures\mod_xfer_beams.png"
       inkscape:export-xdpi="200"
       inkscape:export-ydpi="200" />
    <text
       transform="scale(0.96414918,1.0371839)"
       sodipodi:linespacing="125%"
       id="text3755-6"
       y="506.1395"
       x="307.32611"
       style="font-size:11.39476967px;font-style:normal;font-weight:normal;line-height:125%;letter-spacing:0px;word-spacing:0px;fill:#000000;fill-opacity:1;stroke:none;font-family:Sans"
       xml:space="preserve"
       inkscape:export-filename="E:\University Stuff\ENPH 479\final\figures\mod_xfer_beams.png"
       inkscape:export-xdpi="200"
       inkscape:export-ydpi="200"><tspan
         style="font-size:27.34744835px;font-weight:bold;-inkscape-font-specification:Sans Bold"
         y="506.1395"
         x="307.32611"
         id="tspan3757-8"
         sodipodi:role="line">Rb</tspan></text>
    <path
       sodipodi:nodetypes="cc"
       inkscape:connector-curvature="0"
       id="path3759-5"
       d="m 210.19514,480.72963 379.1372,0"
       style="fill:none;stroke:#000000;stroke-width:5.1413703;stroke-linecap:butt;stroke-linejoin:miter;stroke-miterlimit:4;stroke-opacity:1;stroke-dasharray:none;marker-end:url(#Arrow1Send)"
       inkscape:export-filename="E:\University Stuff\ENPH 479\final\figures\mod_xfer_beams.png"
       inkscape:export-xdpi="200"
       inkscape:export-ydpi="200" />
    <text
       sodipodi:linespacing="125%"
       id="text4450-8"
       y="357.58679"
       x="498.7713"
       style="font-size:20px;font-style:normal;font-weight:normal;line-height:125%;letter-spacing:0px;word-spacing:0px;fill:#000000;fill-opacity:1;stroke:none;font-family:Sans"
       xml:space="preserve"
       inkscape:export-filename="E:\University Stuff\ENPH 479\final\figures\mod_xfer_beams.png"
       inkscape:export-xdpi="200"
       inkscape:export-ydpi="200"><tspan
         style="font-weight:bold;-inkscape-font-specification:Sans Bold"
         y="357.58679"
         x="498.7713"
         id="tspan4452-9"
         sodipodi:role="line">ω + Ω</tspan></text>
    <text
       sodipodi:linespacing="125%"
       id="text4450-5-2"
       y="404.03558"
       x="501.2713"
       style="font-size:20px;font-style:normal;font-weight:normal;line-height:125%;letter-spacing:0px;word-spacing:0px;fill:#000000;fill-opacity:1;stroke:none;font-family:Sans"
       xml:space="preserve"
       inkscape:export-filename="E:\University Stuff\ENPH 479\final\figures\mod_xfer_beams.png"
       inkscape:export-xdpi="200"
       inkscape:export-ydpi="200"><tspan
         style="font-weight:bold;-inkscape-font-specification:Sans Bold"
         y="404.03558"
         x="501.2713"
         id="tspan4452-5-7"
         sodipodi:role="line">ω - Ω</tspan></text>
    <text
       sodipodi:linespacing="125%"
       id="text4450-1-9"
       y="471.74985"
       x="234.43918"
       style="font-size:20px;font-style:normal;font-weight:normal;line-height:125%;letter-spacing:0px;word-spacing:0px;fill:#000000;fill-opacity:1;stroke:none;font-family:Sans"
       xml:space="preserve"
       inkscape:export-filename="E:\University Stuff\ENPH 479\final\figures\mod_xfer_beams.png"
       inkscape:export-xdpi="200"
       inkscape:export-ydpi="200"><tspan
         style="font-weight:bold;-inkscape-font-specification:Sans Bold"
         y="471.74985"
         x="234.43918"
         id="tspan4452-7-5"
         sodipodi:role="line">ω</tspan></text>
    <text
       sodipodi:linespacing="125%"
       id="text4450-7-1"
       y="452.48325"
       x="145.60921"
       style="font-size:26.21760559px;font-style:normal;font-weight:normal;line-height:125%;letter-spacing:0px;word-spacing:0px;fill:#000000;fill-opacity:1;stroke:none;font-family:Sans"
       xml:space="preserve"
       transform="scale(0.92541303,1.0805986)"
       inkscape:export-filename="E:\University Stuff\ENPH 479\final\figures\mod_xfer_beams.png"
       inkscape:export-xdpi="200"
       inkscape:export-ydpi="200"><tspan
         style="font-weight:bold;-inkscape-font-specification:Sans Bold"
         y="452.48325"
         x="145.60921"
         id="tspan4452-6-2"
         sodipodi:role="line">Probe</tspan></text>
    <path
       sodipodi:nodetypes="cc"
       inkscape:connector-curvature="0"
       id="path3759-5-1"
       d="m 594.618,385.9336 -374.59151,0"
       style="fill:none;stroke:#000000;stroke-width:5.1413703;stroke-linecap:butt;stroke-linejoin:miter;stroke-miterlimit:4;stroke-opacity:1;stroke-dasharray:none;marker-end:url(#Arrow1Send)"
       inkscape:export-filename="E:\University Stuff\ENPH 479\final\figures\mod_xfer_beams.png"
       inkscape:export-xdpi="200"
       inkscape:export-ydpi="200" />
    <text
       sodipodi:linespacing="125%"
       id="text4450-7-1-3"
       y="378.55161"
       x="627.97778"
       style="font-size:23.52055168px;font-style:normal;font-weight:normal;line-height:125%;letter-spacing:0px;word-spacing:0px;fill:#000000;fill-opacity:1;stroke:none;font-family:Sans"
       xml:space="preserve"
       transform="scale(0.96296153,1.0384631)"
       inkscape:export-filename="E:\University Stuff\ENPH 479\final\figures\mod_xfer_beams.png"
       inkscape:export-xdpi="200"
       inkscape:export-ydpi="200"><tspan
         style="font-weight:bold;-inkscape-font-specification:Sans Bold"
         y="378.55161"
         x="627.97778"
         id="tspan4452-6-2-8"
         sodipodi:role="line">Pump</tspan></text>
    <path
       sodipodi:nodetypes="cc"
       inkscape:connector-curvature="0"
       id="path3759-5-1-2"
       d="m 595.33228,363.07647 -374.08643,0"
       style="fill:none;stroke:#000000;stroke-width:5.1413703;stroke-linecap:butt;stroke-linejoin:miter;stroke-miterlimit:4;stroke-opacity:1;stroke-dasharray:none;marker-end:url(#Arrow1Send)"
       inkscape:export-filename="E:\University Stuff\ENPH 479\final\figures\mod_xfer_beams.png"
       inkscape:export-xdpi="200"
       inkscape:export-ydpi="200" />
    <path
       sodipodi:nodetypes="cc"
       inkscape:connector-curvature="0"
       id="path3759-5-1-1"
       d="m 593.9037,408.79075 -374.5915,0"
       style="fill:none;stroke:#000000;stroke-width:5.1413703;stroke-linecap:butt;stroke-linejoin:miter;stroke-miterlimit:4;stroke-opacity:1;stroke-dasharray:none;marker-end:url(#Arrow1Send)"
       inkscape:export-filename="E:\University Stuff\ENPH 479\final\figures\mod_xfer_beams.png"
       inkscape:export-xdpi="200"
       inkscape:export-ydpi="200" />
    <text
       sodipodi:linespacing="125%"
       id="text4450-8-9"
       y="444.52527"
       x="498.7713"
       style="font-size:20px;font-style:normal;font-weight:normal;line-height:125%;letter-spacing:0px;word-spacing:0px;fill:#000000;fill-opacity:1;stroke:none;font-family:Sans"
       xml:space="preserve"
       inkscape:export-filename="E:\University Stuff\ENPH 479\final\figures\mod_xfer_beams.png"
       inkscape:export-xdpi="200"
       inkscape:export-ydpi="200"><tspan
         style="font-weight:bold;-inkscape-font-specification:Sans Bold"
         y="444.52527"
         x="498.7713"
         id="tspan4452-9-8"
         sodipodi:role="line">ω + Ω</tspan></text>
    <text
       sodipodi:linespacing="125%"
       id="text4450-8-6"
       y="531.09668"
       x="501.2713"
       style="font-size:20px;font-style:normal;font-weight:normal;line-height:125%;letter-spacing:0px;word-spacing:0px;fill:#000000;fill-opacity:1;stroke:none;font-family:Sans"
       xml:space="preserve"
       inkscape:export-filename="E:\University Stuff\ENPH 479\final\figures\mod_xfer_beams.png"
       inkscape:export-xdpi="200"
       inkscape:export-ydpi="200"><tspan
         style="font-weight:bold;-inkscape-font-specification:Sans Bold"
         y="531.09668"
         x="501.2713"
         id="tspan4452-9-5"
         sodipodi:role="line">ω - Ω</tspan></text>
    <text
       sodipodi:linespacing="125%"
       id="text4450-1-9-0-8"
       y="379.57339"
       x="518.08282"
       style="font-size:20px;font-style:normal;font-weight:normal;line-height:125%;letter-spacing:0px;word-spacing:0px;fill:#000000;fill-opacity:1;stroke:none;font-family:Sans"
       xml:space="preserve"
       inkscape:export-filename="E:\University Stuff\ENPH 479\final\figures\mod_xfer_beams.png"
       inkscape:export-xdpi="200"
       inkscape:export-ydpi="200"><tspan
         style="font-weight:bold;-inkscape-font-specification:Sans Bold"
         y="379.57339"
         x="518.08282"
         id="tspan4452-7-5-2-6"
         sodipodi:role="line">ω</tspan></text>
    <path
       id="path4844"
       title="sin(x)"
       d="m 452.91029,457.36214 c 0.33772,-0.30418 0.67544,-0.60837 1.01317,-0.90922 0.33772,-0.30084 0.67544,-0.59833 1.01318,-0.88921 0.33772,-0.2909 0.67544,-0.57514 1.01317,-0.84968 0.33772,-0.27453 0.67545,-0.5393 1.01318,-0.79145 0.33772,-0.25214 0.67544,-0.4916 1.01317,-0.71581 0.33772,-0.22422 0.67545,-0.4331 1.01318,-0.62444 0.33772,-0.19135 0.67544,-0.36507 1.01317,-0.51935 0.33772,-0.15428 0.67545,-0.28901 1.01318,-0.40282 0.33772,-0.11382 0.67544,-0.20659 1.01317,-0.27744 0.33772,-0.0709 0.67545,-0.11964 1.01317,-0.14598 0.33773,-0.0263 0.67545,-0.03 1.01318,-0.0113 0.33773,0.0188 0.67544,0.0602 1.01318,0.12365 0.33772,0.0635 0.67544,0.14911 1.01317,0.25588 0.33772,0.10676 0.67544,0.23476 1.01318,0.38247 0.33772,0.14771 0.67544,0.31524 1.01317,0.50065 0.33772,0.1854 0.67544,0.38879 1.01318,0.60782 0.33772,0.21903 0.67544,0.45379 1.01317,0.70163 0.33772,0.24784 0.67545,0.50882 1.01318,0.78001 0.33772,0.27119 0.67544,0.55265 1.01317,0.84124 0.33772,0.28858 0.67545,0.58434 1.01318,0.88397 0.33772,0.29964 0.67544,0.60316 1.01317,0.90726 0.33772,0.30409 0.67545,0.60874 1.01317,0.9106 0.33773,0.30187 0.67545,0.60093 1.01318,0.89393 0.33773,0.29301 0.67544,0.5799 1.01318,0.85759 0.33772,0.27769 0.67544,0.54613 1.01317,0.8024 0.33772,0.25628 0.67544,0.50034 1.01318,0.72957 0.33772,0.22922 0.67544,0.44354 1.01317,0.64068 0.33772,0.19715 0.67544,0.37701 1.01318,0.53773 0.33772,0.16071 0.67544,0.30216 1.01317,0.42292 0.33772,0.12076 0.67544,0.2207 1.01318,0.29885 0.33772,0.0782 0.67544,0.13436 1.01317,0.16817 0.33772,0.0338 0.67545,0.0451 1.01318,0.0338 0.33772,-0.0113 0.67544,-0.0452 1.01317,-0.10127 0.33772,-0.0561 0.67545,-0.13448 1.01317,-0.23416 0.33773,-0.0997 0.67545,-0.2208 1.01318,-0.36188 0.33772,-0.14109 0.67544,-0.30227 1.01317,-0.48165 0.33773,-0.17938 0.67545,-0.37708 1.01318,-0.59083 0.33772,-0.21374 0.67544,-0.44362 1.01318,-0.68702 0.33772,-0.24339 0.67544,-0.50038 1.01317,-0.76808 0.33772,-0.26771 0.67544,-0.54617 1.01318,-0.8323 0.33772,-0.28611 0.67544,-0.57993 1.01317,-0.87817 0.33772,-0.29825 0.67544,-0.60095 1.01318,-0.90476 0.33772,-0.30381 0.67544,-0.60874 1.01317,-0.91144 0.33772,-0.3027 0.67545,-0.60315 1.01318,-0.89808 0.33772,-0.29494 0.67544,-0.58432 1.01317,-0.86499 0.33772,-0.28068 0.67545,-0.55261 1.01317,-0.81286 0.33773,-0.26025 0.67545,-0.50876 1.01318,-0.74286 0.33772,-0.23411 0.67544,-0.45373 1.01317,-0.65654 0.33773,-0.20281 0.67545,-0.38872 1.01318,-0.55576 0.33772,-0.16706 0.67544,-0.31516 1.01318,-0.44278 0.33772,-0.12763 0.67544,-0.23466 1.01317,-0.32006 0.33772,-0.0854 0.67544,-0.14901 1.01318,-0.19029 0.33772,-0.0413 0.67544,-0.0601 1.01317,-0.0563 0.33772,0.004 0.67544,0.0301 1.01318,0.0789 0.33772,0.0486 0.67544,0.11974 1.01317,0.21228 0.33772,0.0925 0.67544,0.2067 1.01318,0.34108 0.33771,0.13437 0.67544,0.2891 1.01317,0.46235 0.33772,0.17326 0.67545,0.36516 1.01317,0.57347 0.33773,0.20833 0.67545,0.43318 1.01318,0.67199 0.33772,0.23881 0.67544,0.49166 1.01317,0.75571 0.33773,0.26405 0.67545,0.53934 1.01318,0.82282 0.33772,0.28348 0.67544,0.57518 1.01317,0.87185 0.33773,0.29667 0.67545,0.59835 1.01318,0.9017 0.33772,0.30335 0.67544,0.60837 1.01318,0.91172 0.33772,0.30336 0.67544,0.60502 1.01317,0.9017 0.33772,0.29668 0.67544,0.58835 1.01318,0.87185 0.33772,0.28348 0.67544,0.55876 1.01317,0.82283 0.33772,0.26406 0.67544,0.51686 1.01318,0.75571 0.33771,0.23883 0.67544,0.46362 1.01317,0.67197 0.33772,0.20835 0.67545,0.40018 1.01317,0.57348 0.33773,0.17329 0.67545,0.32794 1.01318,0.46235 0.33772,0.13442 0.67544,0.24849 1.01317,0.34107 0.33773,0.0926 0.67545,0.16357 1.01318,0.21229 0.33772,0.0487 0.67544,0.075 1.01317,0.0789 0.33773,0.004 0.67545,-0.0151 1.01318,-0.0563 0.33772,-0.0413 0.67544,-0.10494 1.01317,-0.19029 0.33773,-0.0854 0.67545,-0.19247 1.01318,-0.32006 0.33772,-0.12758 0.67544,-0.27576 1.01318,-0.44278 0.33772,-0.16701 0.67544,-0.35298 1.01317,-0.55576 0.33772,-0.20278 0.67544,-0.42245 1.01318,-0.65653 0.33771,-0.23408 0.67544,-0.48264 1.01317,-0.74286 0.33772,-0.26024 0.67544,-0.53221 1.01317,-0.81287 0.33772,-0.28066 0.67545,-0.57006 1.01318,-0.86498 0.33772,-0.29492 0.67544,-0.59539 1.01317,-0.89809 0.33773,-0.3027 0.67545,-0.60762 1.01318,-0.91144 0.33772,-0.30381 0.67544,-0.6065 1.01317,-0.90476 0.33773,-0.29825 0.67545,-0.59204 1.01318,-0.87817 0.33772,-0.28614 0.67544,-0.56457 1.01317,-0.83229 0.33773,-0.26773 0.67545,-0.52467 1.01318,-0.76809 0.33772,-0.24343 0.67544,-0.47325 1.01318,-0.68702 0.33772,-0.21378 0.67544,-0.41141 1.01317,-0.59083 0.33772,-0.17942 0.67544,-0.34052 1.01318,-0.48165 0.33771,-0.14113 0.67544,-0.26215 1.01317,-0.36188 0.33772,-0.0997 0.67544,-0.17802 1.01317,-0.23416 0.33772,-0.0561 0.67545,-0.09 1.01318,-0.10128 0.33772,-0.0113 0.67544,5e-5 1.01317,0.0338 0.33773,0.0338 0.67545,0.0901 1.01318,0.16818 0.33772,0.0781 0.67544,0.17812 1.01317,0.29884 0.33773,0.12072 0.67545,0.26226 1.01318,0.42293 0.33772,0.16068 0.67544,0.34061 1.01317,0.53773 0.33773,0.1971 0.67545,0.41148 1.01318,0.64068 0.33772,0.2292 0.67544,0.47331 1.01317,0.72956 0.33773,0.25626 0.67544,0.52473 1.01318,0.8024 0.33772,0.27768 0.67544,0.56461 1.01318,0.85759 0.33771,0.29299 0.67544,0.59207 1.01317,0.89393 0.33772,0.30186 0.67544,0.60651 1.01317,0.9106 0.33772,0.3041 0.67545,0.60762 1.01318,0.90727 0.33772,0.29964 0.67544,0.59536 1.01317,0.88397 0.33772,0.2886 0.67545,0.57002 1.01318,0.84124 0.33772,0.27121 0.67544,0.53214 1.01317,0.78 0.33773,0.24787 0.67545,0.48257 1.01318,0.70164 0.33772,0.21905 0.67544,0.42238 1.01317,0.60782 0.33773,0.18543 0.67545,0.3529 1.01318,0.50064 0.33772,0.14776 0.67544,0.27567 1.01317,0.38248 0.33773,0.1068 0.67544,0.19236 1.01318,0.25588 0.33772,0.0635 0.67544,0.10483 1.01318,0.12365 0.33771,0.0188 0.67544,0.015 1.01317,-0.0113 0.33772,-0.0263 0.67544,-0.0751 1.01317,-0.14597 0.33772,-0.0708 0.67545,-0.16367 1.01318,-0.27744 0.33772,-0.11377 0.67544,-0.24858 1.01317,-0.40283 0.33772,-0.15424 0.67545,-0.32802 1.01318,-0.51934 0.33772,-0.19132 0.67544,-0.40025 1.01317,-0.62444 0.33772,-0.22418 0.67545,-0.4637 1.01317,-0.71581 0.33773,-0.25213 0.67545,-0.51694 1.01318,-0.79146 0.33773,-0.27451 0.67545,-0.55879 1.01318,-0.84967 0.33772,-0.29087 0.67544,-0.58838 1.01317,-0.88922 0.33773,-0.30084 0.67544,-0.60503 1.01318,-0.90921 l 10.12495,-0.72233"
       style="fill:none;stroke:#000000;stroke-width:3.84915257;stroke-miterlimit:4;stroke-opacity:1;stroke-dasharray:none;stroke-dashoffset:0;marker-end:url(#Arrow1Send-77)"
       inkscape:connector-curvature="0"
       sodipodi:nodetypes="cccssscsscccccccssscssssccssscccscccccccsccsscssccccccccccsccccccsscsccscccsscssccsccccssscccccccccscssccsssscsccccccscccssscsccc"
       inkscape:export-filename="E:\University Stuff\ENPH 479\final\figures\mod_xfer_beams.png"
       inkscape:export-xdpi="200"
       inkscape:export-ydpi="200" />
    <path
       id="path4844-4"
       title="sin(x)"
       d="m 452.39845,506.64783 c 0.33772,-0.30418 0.67544,-0.60837 1.01317,-0.90922 0.33772,-0.30084 0.67544,-0.59833 1.01318,-0.88921 0.33772,-0.2909 0.67544,-0.57514 1.01317,-0.84968 0.33772,-0.27453 0.67545,-0.5393 1.01318,-0.79145 0.33772,-0.25214 0.67544,-0.4916 1.01317,-0.71581 0.33772,-0.22422 0.67545,-0.4331 1.01318,-0.62444 0.33772,-0.19135 0.67544,-0.36507 1.01317,-0.51935 0.33772,-0.15428 0.67545,-0.28901 1.01318,-0.40282 0.33772,-0.11382 0.67544,-0.20659 1.01317,-0.27744 0.33772,-0.0709 0.67545,-0.11964 1.01317,-0.14598 0.33773,-0.0263 0.67545,-0.03 1.01318,-0.0113 0.33773,0.0188 0.67544,0.0602 1.01318,0.12365 0.33772,0.0635 0.67544,0.14911 1.01317,0.25588 0.33772,0.10676 0.67544,0.23476 1.01318,0.38247 0.33772,0.14771 0.67544,0.31524 1.01317,0.50065 0.33772,0.1854 0.67544,0.38879 1.01318,0.60782 0.33772,0.21903 0.67544,0.45379 1.01317,0.70163 0.33772,0.24784 0.67545,0.50882 1.01318,0.78001 0.33772,0.27119 0.67544,0.55265 1.01317,0.84124 0.33772,0.28858 0.67545,0.58434 1.01318,0.88397 0.33772,0.29964 0.67544,0.60316 1.01317,0.90726 0.33772,0.30409 0.67545,0.60874 1.01317,0.9106 0.33773,0.30187 0.67545,0.60093 1.01318,0.89393 0.33773,0.29301 0.67544,0.5799 1.01318,0.85759 0.33772,0.27769 0.67544,0.54613 1.01317,0.8024 0.33772,0.25628 0.67544,0.50034 1.01318,0.72957 0.33772,0.22922 0.67544,0.44354 1.01317,0.64068 0.33772,0.19715 0.67544,0.37701 1.01318,0.53773 0.33772,0.16071 0.67544,0.30216 1.01317,0.42292 0.33772,0.12076 0.67544,0.2207 1.01318,0.29885 0.33772,0.0782 0.67544,0.13436 1.01317,0.16817 0.33772,0.0338 0.67545,0.0451 1.01318,0.0338 0.33772,-0.0113 0.67544,-0.0452 1.01317,-0.10127 0.33772,-0.0561 0.67545,-0.13448 1.01317,-0.23416 0.33773,-0.0997 0.67545,-0.2208 1.01318,-0.36188 0.33772,-0.14109 0.67544,-0.30227 1.01317,-0.48165 0.33773,-0.17938 0.67545,-0.37708 1.01318,-0.59083 0.33772,-0.21374 0.67544,-0.44362 1.01318,-0.68702 0.33772,-0.24339 0.67544,-0.50038 1.01317,-0.76808 0.33772,-0.26771 0.67544,-0.54617 1.01318,-0.8323 0.33772,-0.28611 0.67544,-0.57993 1.01317,-0.87817 0.33772,-0.29825 0.67544,-0.60095 1.01318,-0.90476 0.33772,-0.30381 0.67544,-0.60874 1.01317,-0.91144 0.33772,-0.3027 0.67545,-0.60315 1.01318,-0.89808 0.33772,-0.29494 0.67544,-0.58432 1.01317,-0.86499 0.33772,-0.28068 0.67545,-0.55261 1.01317,-0.81286 0.33773,-0.26025 0.67545,-0.50876 1.01318,-0.74286 0.33772,-0.23411 0.67544,-0.45373 1.01317,-0.65654 0.33773,-0.20281 0.67545,-0.38872 1.01318,-0.55576 0.33772,-0.16706 0.67544,-0.31516 1.01318,-0.44278 0.33772,-0.12763 0.67544,-0.23466 1.01317,-0.32006 0.33772,-0.0854 0.67544,-0.14901 1.01318,-0.19029 0.33772,-0.0413 0.67544,-0.0601 1.01317,-0.0563 0.33772,0.004 0.67544,0.0301 1.01318,0.0789 0.33772,0.0486 0.67544,0.11974 1.01317,0.21228 0.33772,0.0925 0.67544,0.2067 1.01318,0.34108 0.33771,0.13437 0.67544,0.2891 1.01317,0.46235 0.33772,0.17326 0.67545,0.36516 1.01317,0.57347 0.33773,0.20833 0.67545,0.43318 1.01318,0.67199 0.33772,0.23881 0.67544,0.49166 1.01317,0.75571 0.33773,0.26405 0.67545,0.53934 1.01318,0.82282 0.33772,0.28348 0.67544,0.57518 1.01317,0.87185 0.33773,0.29667 0.67545,0.59835 1.01318,0.9017 0.33772,0.30335 0.67544,0.60837 1.01318,0.91172 0.33772,0.30336 0.67544,0.60502 1.01317,0.9017 0.33772,0.29668 0.67544,0.58835 1.01318,0.87185 0.33772,0.28348 0.67544,0.55876 1.01317,0.82283 0.33772,0.26406 0.67544,0.51686 1.01318,0.75571 0.33771,0.23883 0.67544,0.46362 1.01317,0.67197 0.33772,0.20835 0.67545,0.40018 1.01317,0.57348 0.33773,0.17329 0.67545,0.32794 1.01318,0.46235 0.33772,0.13442 0.67544,0.24849 1.01317,0.34107 0.33773,0.0926 0.67545,0.16357 1.01318,0.21229 0.33772,0.0487 0.67544,0.075 1.01317,0.0789 0.33773,0.004 0.67545,-0.0151 1.01318,-0.0563 0.33772,-0.0413 0.67544,-0.10494 1.01317,-0.19029 0.33773,-0.0854 0.67545,-0.19247 1.01318,-0.32006 0.33772,-0.12758 0.67544,-0.27576 1.01318,-0.44278 0.33772,-0.16701 0.67544,-0.35298 1.01317,-0.55576 0.33772,-0.20278 0.67544,-0.42245 1.01318,-0.65653 0.33771,-0.23408 0.67544,-0.48264 1.01317,-0.74286 0.33772,-0.26024 0.67544,-0.53221 1.01317,-0.81287 0.33772,-0.28066 0.67545,-0.57006 1.01318,-0.86498 0.33772,-0.29492 0.67544,-0.59539 1.01317,-0.89809 0.33773,-0.3027 0.67545,-0.60762 1.01318,-0.91144 0.33772,-0.30381 0.67544,-0.6065 1.01317,-0.90476 0.33773,-0.29825 0.67545,-0.59204 1.01318,-0.87817 0.33772,-0.28614 0.67544,-0.56457 1.01317,-0.83229 0.33773,-0.26773 0.67545,-0.52467 1.01318,-0.76809 0.33772,-0.24343 0.67544,-0.47325 1.01318,-0.68702 0.33772,-0.21378 0.67544,-0.41141 1.01317,-0.59083 0.33772,-0.17942 0.67544,-0.34052 1.01318,-0.48165 0.33771,-0.14113 0.67544,-0.26215 1.01317,-0.36188 0.33772,-0.0997 0.67544,-0.17802 1.01317,-0.23416 0.33772,-0.0561 0.67545,-0.09 1.01318,-0.10128 0.33772,-0.0113 0.67544,5e-5 1.01317,0.0338 0.33773,0.0338 0.67545,0.0901 1.01319,0.16818 0.33772,0.0781 0.67544,0.17812 1.01317,0.29884 0.33773,0.12072 0.67545,0.26226 1.01318,0.42293 0.33772,0.16068 0.67544,0.34061 1.01317,0.53773 0.33773,0.1971 0.67545,0.41148 1.01318,0.64068 0.33772,0.2292 0.67544,0.47331 1.01317,0.72956 0.33773,0.25626 0.67544,0.52473 1.01318,0.8024 0.33772,0.27768 0.67544,0.56461 1.01318,0.85759 0.33771,0.29299 0.67544,0.59207 1.01317,0.89393 0.33772,0.30186 0.67544,0.60651 1.01317,0.9106 0.33772,0.3041 0.67545,0.60762 1.01318,0.90727 0.33772,0.29964 0.67544,0.59536 1.01317,0.88397 0.33772,0.2886 0.67545,0.57002 1.01318,0.84124 0.33772,0.27121 0.67544,0.53214 1.01317,0.78 0.33773,0.24787 0.67545,0.48257 1.01318,0.70164 0.33772,0.21905 0.67544,0.42238 1.01317,0.60782 0.33773,0.18543 0.67545,0.3529 1.01318,0.50064 0.33772,0.14776 0.67544,0.27567 1.01317,0.38248 0.33773,0.1068 0.67544,0.19236 1.01318,0.25588 0.33772,0.0635 0.67544,0.10483 1.01318,0.12365 0.33771,0.0188 0.67544,0.015 1.01317,-0.0113 0.33772,-0.0263 0.67544,-0.0751 1.01317,-0.14597 0.33772,-0.0708 0.67545,-0.16367 1.01318,-0.27744 0.33772,-0.11377 0.67544,-0.24858 1.01317,-0.40283 0.33772,-0.15424 0.67545,-0.32802 1.01318,-0.51934 0.33772,-0.19132 0.67544,-0.40025 1.01317,-0.62444 0.33772,-0.22418 0.67545,-0.4637 1.01317,-0.71581 0.33773,-0.25213 0.67545,-0.51694 1.01318,-0.79146 0.33773,-0.27451 0.67545,-0.55879 1.01318,-0.84967 0.33772,-0.29087 0.67544,-0.58838 1.01317,-0.88922 0.33773,-0.30084 0.67544,-0.60503 1.01318,-0.90921 l 10.12495,-0.72233"
       style="fill:none;stroke:#000000;stroke-width:3.84915257;stroke-miterlimit:4;stroke-opacity:1;stroke-dasharray:none;stroke-dashoffset:0;marker-end:url(#Arrow1Send-77)"
       inkscape:connector-curvature="0"
       sodipodi:nodetypes="cccssscsscccccccssscssssccssscccscccccccsccsscssccccccccccsccccccsscsccscccsscssccsccccssscccccccccscssccsssscsccccccscccssscsccc"
       inkscape:export-filename="E:\University Stuff\ENPH 479\final\figures\mod_xfer_beams.png"
       inkscape:export-xdpi="200"
       inkscape:export-ydpi="200" />
  </g>
</svg>
